<?xml version="1.0" encoding="UTF-8"?>
<svg width="69px" height="73px" viewBox="0 0 69 73" version="1.1" xmlns="http://www.w3.org/2000/svg" xmlns:xlink="http://www.w3.org/1999/xlink">
    <title>Group 24</title>
    <g id="Symbols" stroke="none" stroke-width="1" fill="none" fill-rule="evenodd">
        <g id="Footer" transform="translate(-461.000000, -431.000000)" fill="#FF7043">
            <g id="Group-24" transform="translate(495.500000, 467.500000) scale(-1, 1) rotate(-147.000000) translate(-495.500000, -467.500000) translate(473.000000, 439.000000)">
                <path d="M36.5828434,50.2553132 C37.2825617,44.6021799 37.4118575,38.8641799 36.4243927,33.3035132 C35.4546744,27.7529799 33.2756603,22.4215799 29.8366462,17.9527799 C26.4179139,13.4599132 21.7645336,9.98164655 16.723266,7.32544655 C11.6579139,4.67051322 6.16411104,2.81991322 0.563829349,1.44431322 L0.55749132,1.44304655 C0.164533574,1.34677988 -0.0750438909,0.949046551 0.0212941373,0.557646551 C0.11636456,0.168779885 0.505519489,-0.0693534485 0.893406813,0.0180465515 C6.6065054,1.30117988 12.2562237,3.07071322 17.5522801,5.71424655 C22.8204491,8.35651322 27.7919984,11.9019132 31.5352378,16.6139132 C35.2974913,21.2993132 37.7490406,26.9777799 38.8911533,32.8361132 C40.0548153,38.7096466 40.0319984,44.7199799 39.4210124,50.6023799 C39.3398857,51.3889799 38.6376322,51.9589799 37.8517167,51.8766466 C37.0658012,51.7955799 36.4953786,51.0925799 36.5765054,50.3085132 C36.577773,50.3009132 36.577773,50.2933132 36.5790406,50.2869799 L36.5828434,50.2553132 Z" id="Fill-1"></path>
                <path d="M37.0304757,45.8712958 C37.8825478,46.4986204 38.7693863,47.1602875 39.6909913,47.8545801 C40.612007,48.5488727 41.4575972,49.1968028 42.227762,49.7977981 C42.9973375,50.3987933 43.4923171,50.7931607 43.7127009,50.9797554 C43.7951975,51.514355 43.5477077,51.9951512 42.9702314,52.422144 C42.3927552,52.8497092 41.6638387,53.2103063 40.7840713,53.5039354 C40.2065951,53.8244662 39.6084947,54.2050965 38.9897701,54.6458264 C38.3710455,55.0859838 37.752321,55.5272861 37.1335964,55.9674435 C36.5148719,56.4087457 35.8961473,56.8363109 35.2774227,57.2501391 C34.6586982,57.6645396 34.0605978,58.0051036 33.4831215,58.271831 C33.2627377,58.2186 33.0706385,58.1184341 32.9056453,57.970761 C32.7406521,57.824805 32.6027649,57.6445064 32.4931622,57.4304376 C32.4377717,57.3239756 32.3965233,57.183171 32.3694173,57.009741 C32.341722,56.8363109 32.328169,56.6823417 32.328169,56.548978 C32.4654669,55.9617198 32.8231487,55.3807577 33.4006249,54.8060918 C33.9781012,54.2319982 34.651627,53.6241345 35.4217918,52.9830729 C35.8342748,52.6093111 36.2880062,52.2819117 36.7829858,52.0014473 C37.2779655,51.7204105 37.7316968,51.4742886 38.1441799,51.2602198 C37.6492002,50.8595563 37.1542206,50.4388597 36.6592409,49.9981298 C36.1642613,49.5574 35.7105299,49.110374 35.2980469,48.6559071 C34.8855639,48.2020126 34.520811,47.7681513 34.2049668,47.3537508 C33.8885334,46.9399226 33.6752208,46.5718846 33.5656181,46.2519262 C33.5379228,45.77113 33.6410436,45.3298277 33.8749804,44.9297366 C34.108328,44.5290731 34.4176902,44.328169 34.8030673,44.328169 C34.9680605,44.328169 35.1189114,44.3957094 35.2567986,44.5290731 C35.586785,44.7963729 36.1778143,45.2439713 37.0304757,45.8712958 Z" id="Fill-1" transform="translate(38.028169, 51.300000) rotate(-270.000000) translate(-38.028169, -51.300000) "></path>
            </g>
        </g>
    </g>
</svg>